<?xml version="1.0" encoding="UTF-8" standalone="no"?>
<!DOCTYPE svg PUBLIC "-//W3C//DTD SVG 1.1//EN" "http://www.w3.org/Graphics/SVG/1.1/DTD/svg11.dtd">
<svg width="100%" height="100%" viewBox="0 0 1100 500" version="1.1" xmlns="http://www.w3.org/2000/svg" xmlns:xlink="http://www.w3.org/1999/xlink" xml:space="preserve" xmlns:serif="http://www.serif.com/" style="fill-rule:evenodd;clip-rule:evenodd;stroke-linejoin:round;stroke-miterlimit:2;">
    <rect id="Artboard1" x="0" y="0" width="1100" height="500" style="fill:none;"/>
    <clipPath id="_clip1">
        <rect id="Artboard11" serif:id="Artboard1" x="0" y="0" width="1100" height="500"/>
    </clipPath>
    <g clip-path="url(#_clip1)">
        <path d="M100,400L200,400L200,500L0,500L0,0L200,0L200,100L100,100L100,400Z" style="fill:rgb(167,168,170);"/>
        <g transform="matrix(-1,-1.22465e-16,1.22465e-16,-1,1100,500)">
            <path d="M100,400L200,400L200,500L0,500L0,0L200,0L200,100L100,100L100,400Z" style="fill:rgb(167,168,170);"/>
        </g>
        <g transform="matrix(-1,-1.22465e-16,1.22465e-16,-1,500,500)">
            <path d="M100,400L200,400L200,500L0,500L0,0L200,0L200,100L100,100L100,400Z" style="fill:rgb(255,209,0);"/>
        </g>
        <g transform="matrix(1,2.44929e-16,-2.44929e-16,1,600,0)">
            <path d="M100,400L200,400L200,500L0,500L0,0L200,0L200,100L100,100L100,400Z" style="fill:rgb(255,209,0);"/>
        </g>
    </g>
</svg>
