
<svg viewBox="0 0 610 144" xmlns="http://www.w3.org/2000/svg" fill-rule="evenodd" clip-rule="evenodd" stroke-linejoin="round" stroke-miterlimit="2">
<style>
@keyframes swap_right{
	0%{
	transform:translateX(13.5%)
	}to{
	transform:translateX(2.7%)
	}
}
@keyframes swap_left{
	0%{
		transform:translateX(-9%)
	}to{
		transform:translateX(2.7%)
	}
	}
@keyframes fade_in_up{
	0%{
		opacity:0;transform:translateY(.25rem)
	}to{
		opacity:1;transform:translateY(0)
	}
}
.name{
	animation:fade_in_up .3s ease-in-out forwards
}
</style>
	<g id="Artboard1" transform="translate(-14.196 -.268)">
		<path fill="none" d="M14.196.268h609.463v143.983H14.196z"/>
			<clipPath id="_clip1">
				<path d="M14.196.268h609.463v143.983H14.196z"/>
			</clipPath>
		<g clip-path="url(#_clip1)">
			<g class="name">
				<path d="M.038.177C.185.116.244.013.244-.186v-.417l.063-.055V-.66H.028v.002l.063.055v.491a.64.64 0 01-.055.288l.002.001z" fill="#53565a" fill-rule="nonzero" transform="matrix(82.2289 0 0 82.2289 148.49 60.81)"/>
				<path d="M.271.015c.162 0 .254-.097.254-.26 0-.167-.077-.25-.238-.25-.161 0-.255.093-.255.259 0 .167.078.251.239.251zM.183-.241c0-.166.044-.235.098-.235.054 0 .093.068.093.235 0 .168-.044.236-.097.236-.054 0-.094-.067-.094-.236z" fill="#53565a" fill-rule="nonzero" transform="matrix(82.2289 0 0 82.2289 174.392 60.81)"/>
				<path d="M.224.013c.108 0 .173-.06.173-.15 0-.084-.055-.121-.126-.165C.195-.348.156-.372.156-.416c0-.039.021-.06.056-.06.039 0 .076.025.157.174h.002v-.197l-.058.036a.172.172 0 00-.102-.031c-.106 0-.165.057-.165.142 0 .086.05.125.116.164.081.047.119.073.119.118 0 .044-.024.065-.059.065-.045 0-.086-.026-.171-.188H.049v.211l.064-.036c.029.02.068.031.111.031z" fill="#53565a" fill-rule="nonzero" transform="matrix(82.2289 0 0 82.2289 220.193 60.81)"/>
				<path d="M.277-.002L.221-.051v-.333a.112.112 0 01.08-.032c.054 0 .081.028.081.114v.251l-.056.049V0h.259v-.002L.529-.051v-.27c0-.118-.044-.174-.143-.174-.073 0-.126.042-.165.099v-.337l-.218.067v.002l.071.046v.567l-.055.049V0h.258v-.002z" fill="#53565a" fill-rule="nonzero" transform="matrix(82.2289 0 0 82.2289 255.717 60.81)"/>
			</g>
			<path d="M91.499 119.938h22.734v22.733H68.766V6.271h45.467v22.733H91.499v90.934z" fill="#a7a8aa"/>
			<path d="M46.033 142.671H.566v-22.733h22.733V29.004H.566V6.271h45.467v136.4z" fill="#ffd100"/>
		</g>
	</g>
</svg>
