<?xml version="1.0" encoding="UTF-8" standalone="no"?>
<!DOCTYPE svg PUBLIC "-//W3C//DTD SVG 1.1//EN" "http://www.w3.org/Graphics/SVG/1.1/DTD/svg11.dtd">
<svg width="100%" height="100%" viewBox="0 0 637 144" version="1.1" xmlns="http://www.w3.org/2000/svg" xmlns:xlink="http://www.w3.org/1999/xlink" xml:space="preserve" xmlns:serif="http://www.serif.com/" style="fill-rule:evenodd;clip-rule:evenodd;stroke-linejoin:round;stroke-miterlimit:2;">
    <g id="Artboard1" transform="matrix(1,0,0,1,-12.9669,-0.268403)">
        <rect x="12.967" y="0.268" width="636.723" height="143.983" style="fill:none;"/>
        <clipPath id="_clip1">
            <rect x="12.967" y="0.268" width="636.723" height="143.983"/>
        </clipPath>
        <g clip-path="url(#_clip1)">
            <g transform="matrix(1.08775,0,0,1.08775,-290.622,-169.572)">
                <g transform="matrix(75.5954,0,0,75.5954,428.328,211.797)">
                    <path d="M0.038,0.177C0.185,0.116 0.244,0.013 0.244,-0.186L0.244,-0.603L0.307,-0.658L0.307,-0.66L0.028,-0.66L0.028,-0.658L0.091,-0.603L0.091,-0.112C0.091,0.008 0.074,0.097 0.036,0.176L0.038,0.177Z" style="fill:rgb(83,86,90);fill-rule:nonzero;"/>
                </g>
                <g transform="matrix(75.5954,0,0,75.5954,452.141,211.797)">
                    <path d="M0.271,0.015C0.433,0.015 0.525,-0.082 0.525,-0.245C0.525,-0.412 0.448,-0.495 0.287,-0.495C0.126,-0.495 0.032,-0.402 0.032,-0.236C0.032,-0.069 0.11,0.015 0.271,0.015ZM0.183,-0.241C0.183,-0.407 0.227,-0.476 0.281,-0.476C0.335,-0.476 0.374,-0.408 0.374,-0.241C0.374,-0.073 0.33,-0.005 0.277,-0.005C0.223,-0.005 0.183,-0.072 0.183,-0.241Z" style="fill:rgb(83,86,90);fill-rule:nonzero;"/>
                </g>
                <g transform="matrix(75.5954,0,0,75.5954,494.247,211.797)">
                    <path d="M0.224,0.013C0.332,0.013 0.397,-0.047 0.397,-0.137C0.397,-0.221 0.342,-0.258 0.271,-0.302C0.195,-0.348 0.156,-0.372 0.156,-0.416C0.156,-0.455 0.177,-0.476 0.212,-0.476C0.251,-0.476 0.288,-0.451 0.369,-0.302L0.371,-0.302L0.371,-0.499L0.313,-0.463C0.29,-0.48 0.255,-0.494 0.211,-0.494C0.105,-0.494 0.046,-0.437 0.046,-0.352C0.046,-0.266 0.096,-0.227 0.162,-0.188C0.243,-0.141 0.281,-0.115 0.281,-0.07C0.281,-0.026 0.257,-0.005 0.222,-0.005C0.177,-0.005 0.136,-0.031 0.051,-0.193L0.049,-0.193L0.049,0.018L0.113,-0.018C0.142,0.002 0.181,0.013 0.224,0.013Z" style="fill:rgb(83,86,90);fill-rule:nonzero;"/>
                </g>
                <g transform="matrix(75.5954,0,0,75.5954,526.905,211.797)">
                    <path d="M0.277,-0.002L0.221,-0.051L0.221,-0.384C0.245,-0.406 0.27,-0.416 0.301,-0.416C0.355,-0.416 0.382,-0.388 0.382,-0.302L0.382,-0.051L0.326,-0.002L0.326,0L0.585,0L0.585,-0.002L0.529,-0.051L0.529,-0.321C0.529,-0.439 0.485,-0.495 0.386,-0.495C0.313,-0.495 0.26,-0.453 0.221,-0.396L0.221,-0.733L0.003,-0.666L0.003,-0.664L0.074,-0.618L0.074,-0.051L0.019,-0.002L0.019,0L0.277,0L0.277,-0.002Z" style="fill:rgb(83,86,90);fill-rule:nonzero;"/>
                </g>
                <g transform="matrix(75.5954,0,0,75.5954,428.328,287.392)">
                    <path d="M0.346,0.015C0.461,0.015 0.548,-0.049 0.572,-0.151L0.571,-0.152C0.526,-0.111 0.468,-0.09 0.4,-0.09C0.269,-0.09 0.197,-0.17 0.197,-0.347C0.197,-0.549 0.271,-0.656 0.357,-0.656C0.413,-0.656 0.454,-0.632 0.549,-0.426L0.551,-0.426L0.551,-0.682L0.473,-0.644C0.444,-0.663 0.405,-0.675 0.36,-0.675C0.156,-0.675 0.039,-0.528 0.039,-0.324C0.039,-0.113 0.14,0.015 0.346,0.015Z" style="fill:rgb(83,86,90);fill-rule:nonzero;"/>
                </g>
                <g transform="matrix(75.5954,0,0,75.5954,473.383,287.392)">
                    <path d="M0.271,0.015C0.433,0.015 0.525,-0.082 0.525,-0.245C0.525,-0.412 0.448,-0.495 0.287,-0.495C0.126,-0.495 0.032,-0.402 0.032,-0.236C0.032,-0.069 0.11,0.015 0.271,0.015ZM0.183,-0.241C0.183,-0.407 0.227,-0.476 0.281,-0.476C0.335,-0.476 0.374,-0.408 0.374,-0.241C0.374,-0.073 0.33,-0.005 0.277,-0.005C0.223,-0.005 0.183,-0.072 0.183,-0.241Z" style="fill:rgb(83,86,90);fill-rule:nonzero;"/>
                </g>
                <g transform="matrix(75.5954,0,0,75.5954,515.49,287.392)">
                    <path d="M0.278,-0.002L0.223,-0.051L0.223,-0.733L0.007,-0.666L0.006,-0.664L0.075,-0.618L0.075,-0.051L0.02,-0.002L0.02,0L0.278,0L0.278,-0.002Z" style="fill:rgb(83,86,90);fill-rule:nonzero;"/>
                </g>
                <g transform="matrix(75.5954,0,0,75.5954,537.942,287.392)">
                    <path d="M0.278,-0.002L0.223,-0.051L0.223,-0.733L0.007,-0.666L0.006,-0.664L0.075,-0.618L0.075,-0.051L0.02,-0.002L0.02,0L0.278,0L0.278,-0.002Z" style="fill:rgb(83,86,90);fill-rule:nonzero;"/>
                </g>
                <g transform="matrix(75.5954,0,0,75.5954,560.393,287.392)">
                    <path d="M0.151,-0.556C0.194,-0.556 0.229,-0.59 0.229,-0.634C0.229,-0.679 0.194,-0.713 0.151,-0.713C0.106,-0.713 0.072,-0.679 0.072,-0.634C0.072,-0.59 0.106,-0.556 0.151,-0.556ZM0.285,-0.002L0.23,-0.051L0.23,-0.501L0.014,-0.436L0.014,-0.434L0.082,-0.388L0.082,-0.051L0.027,-0.002L0.027,0L0.285,0L0.285,-0.002Z" style="fill:rgb(83,86,90);fill-rule:nonzero;"/>
                </g>
                <g transform="matrix(75.5954,0,0,75.5954,583.45,287.392)">
                    <path d="M0.283,-0.002L0.228,-0.051L0.228,-0.384C0.251,-0.406 0.277,-0.416 0.308,-0.416C0.362,-0.416 0.388,-0.388 0.388,-0.302L0.388,-0.051L0.333,-0.002L0.333,0L0.591,0L0.591,-0.002L0.536,-0.051L0.536,-0.321C0.536,-0.439 0.492,-0.495 0.392,-0.495C0.317,-0.495 0.262,-0.449 0.223,-0.389L0.225,-0.501L0.015,-0.438L0.014,-0.436L0.08,-0.388L0.08,-0.051L0.025,-0.002L0.025,0L0.283,0L0.283,-0.002Z" style="fill:rgb(83,86,90);fill-rule:nonzero;"/>
                </g>
                <g transform="matrix(75.5954,0,0,75.5954,629.185,287.392)">
                    <path d="M0.224,0.013C0.332,0.013 0.397,-0.047 0.397,-0.137C0.397,-0.221 0.342,-0.258 0.271,-0.302C0.195,-0.348 0.156,-0.372 0.156,-0.416C0.156,-0.455 0.177,-0.476 0.212,-0.476C0.251,-0.476 0.288,-0.451 0.369,-0.302L0.371,-0.302L0.371,-0.499L0.313,-0.463C0.29,-0.48 0.255,-0.494 0.211,-0.494C0.105,-0.494 0.046,-0.437 0.046,-0.352C0.046,-0.266 0.096,-0.227 0.162,-0.188C0.243,-0.141 0.281,-0.115 0.281,-0.07C0.281,-0.026 0.257,-0.005 0.222,-0.005C0.177,-0.005 0.136,-0.031 0.051,-0.193L0.049,-0.193L0.049,0.018L0.113,-0.018C0.142,0.002 0.181,0.013 0.224,0.013Z" style="fill:rgb(83,86,90);fill-rule:nonzero;"/>
                </g>
                <g transform="matrix(75.5954,0,0,75.5954,661.691,287.392)">
                    <path d="M0.56,0.003L0.698,-0.396L0.765,-0.479L0.765,-0.481L0.591,-0.481L0.591,-0.479C0.673,-0.397 0.673,-0.397 0.662,-0.365L0.586,-0.138L0.469,-0.494L0.401,-0.481L0.288,-0.141L0.2,-0.429L0.264,-0.479L0.264,-0.481L-0.001,-0.481L-0.001,-0.479L0.039,-0.429L0.203,0.011L0.266,0.002L0.381,-0.343L0.498,0.011L0.56,0.003Z" style="fill:rgb(83,86,90);fill-rule:nonzero;"/>
                </g>
                <g transform="matrix(75.5954,0,0,75.5954,717.405,287.392)">
                    <path d="M0.271,0.015C0.433,0.015 0.525,-0.082 0.525,-0.245C0.525,-0.412 0.448,-0.495 0.287,-0.495C0.126,-0.495 0.032,-0.402 0.032,-0.236C0.032,-0.069 0.11,0.015 0.271,0.015ZM0.183,-0.241C0.183,-0.407 0.227,-0.476 0.281,-0.476C0.335,-0.476 0.374,-0.408 0.374,-0.241C0.374,-0.073 0.33,-0.005 0.277,-0.005C0.223,-0.005 0.183,-0.072 0.183,-0.241Z" style="fill:rgb(83,86,90);fill-rule:nonzero;"/>
                </g>
                <g transform="matrix(75.5954,0,0,75.5954,759.512,287.392)">
                    <path d="M0.312,-0.002L0.23,-0.055L0.23,-0.356C0.245,-0.377 0.263,-0.387 0.289,-0.387C0.322,-0.387 0.339,-0.361 0.342,-0.317L0.343,-0.317C0.392,-0.33 0.423,-0.369 0.423,-0.421C0.423,-0.47 0.398,-0.496 0.355,-0.496C0.298,-0.496 0.262,-0.449 0.225,-0.362L0.227,-0.504L0.014,-0.438L0.014,-0.436L0.082,-0.388L0.082,-0.051L0.027,-0.002L0.027,0L0.312,0L0.312,-0.002Z" style="fill:rgb(83,86,90);fill-rule:nonzero;"/>
                </g>
                <g transform="matrix(75.5954,0,0,75.5954,792.093,287.392)">
                    <path d="M0.221,0.015C0.306,0.015 0.355,-0.022 0.369,-0.105L0.368,-0.107C0.35,-0.087 0.323,-0.072 0.291,-0.072C0.248,-0.072 0.231,-0.093 0.231,-0.16L0.231,-0.414L0.356,-0.414L0.363,-0.481L0.231,-0.481L0.231,-0.646L0.229,-0.646L0.096,-0.484L0.011,-0.467L0.004,-0.414L0.083,-0.414L0.083,-0.135C0.083,-0.038 0.131,0.015 0.221,0.015Z" style="fill:rgb(83,86,90);fill-rule:nonzero;"/>
                </g>
                <g transform="matrix(75.5954,0,0,75.5954,821.122,287.392)">
                    <path d="M0.277,-0.002L0.221,-0.051L0.221,-0.384C0.245,-0.406 0.27,-0.416 0.301,-0.416C0.355,-0.416 0.382,-0.388 0.382,-0.302L0.382,-0.051L0.326,-0.002L0.326,0L0.585,0L0.585,-0.002L0.529,-0.051L0.529,-0.321C0.529,-0.439 0.485,-0.495 0.386,-0.495C0.313,-0.495 0.26,-0.453 0.221,-0.396L0.221,-0.733L0.003,-0.666L0.003,-0.664L0.074,-0.618L0.074,-0.051L0.019,-0.002L0.019,0L0.277,0L0.277,-0.002Z" style="fill:rgb(83,86,90);fill-rule:nonzero;"/>
                </g>
            </g>
            <g transform="matrix(-0.272768,-3.34045e-17,3.34045e-17,-0.272768,68.4874,142.923)">
                <path d="M100,400L200,400L200,500L0,500L0,0L200,0L200,100L100,100L100,400Z" style="fill:rgb(255,209,0);"/>
            </g>
            <g transform="matrix(0.272768,6.68087e-17,-6.68087e-17,0.272768,95.7642,6.53951)">
                <path d="M100,400L200,400L200,500L0,500L0,0L200,0L200,100L100,100L100,400Z" style="fill:rgb(167,168,170);"/>
            </g>
        </g>
    </g>
</svg>
