<?xml version="1.0" encoding="UTF-8" standalone="no"?>
<!DOCTYPE svg PUBLIC "-//W3C//DTD SVG 1.1//EN" "http://www.w3.org/Graphics/SVG/1.1/DTD/svg11.dtd">
<svg width="100%" height="100%" viewBox="0 0 842 1243" version="1.1" xmlns="http://www.w3.org/2000/svg" xmlns:xlink="http://www.w3.org/1999/xlink" xml:space="preserve" xmlns:serif="http://www.serif.com/" style="fill-rule:evenodd;clip-rule:evenodd;stroke-linejoin:round;stroke-miterlimit:2;">
    <g id="Artboard1" transform="matrix(1,0,0,1,-261.989,-65.6717)">
        <rect x="261.989" y="65.672" width="841.021" height="1242.55" style="fill:none;"/>
        <clipPath id="_clip1">
            <rect x="261.989" y="65.672" width="841.021" height="1242.55"/>
        </clipPath>
        <g clip-path="url(#_clip1)">
            <g transform="matrix(1.08992,0,0,1.08992,-425.951,-18.3755)">
                <g id="Layer1">
                    <g>
                        <g transform="matrix(1.33972,0,0,1.33972,-339.459,-23.6349)">
                            <path d="M768.038,326.009C765.513,288.676 778.864,227.529 799.901,196.053C820.937,164.577 869.814,81.411 1002,75.944C1134.18,70.477 1192.84,145.246 1221.05,210.106C1249.27,274.966 1258.25,363.369 1250.6,402.712C1249.32,409.31 1252.38,409.132 1255.28,407.299C1258.18,405.466 1264.5,398.237 1274.91,399.362C1285.33,400.487 1310,417.485 1297.89,472.484C1285.78,527.483 1275.29,591.147 1236.11,577.753C1236.11,577.753 1155.07,782.68 995.438,782.68C835.804,782.68 799.729,691.822 784.417,618.25C769.105,544.678 770.031,516.63 775.164,494.981C780.297,473.332 778.589,438.196 776.463,412.708C774.338,387.221 770.562,363.341 768.038,326.009Z" style="fill:rgb(255,233,208);"/>
                        </g>
                        <g transform="matrix(1.33972,0,0,1.33972,-339.459,-23.6349)">
                            <path d="M775.78,570.588C765.905,570.145 762.569,760.925 778.808,812.103C795.047,863.281 854.73,928.465 984.257,926.571C1113.78,924.677 1192.74,851.164 1223.23,782.68C1253.71,714.196 1238.8,611.538 1235.45,553.752C1232.1,495.966 1229.08,437.488 1222.88,441.469C1216.68,445.45 1219.3,533.782 1201.12,594.75C1182.94,655.718 1158.12,670.408 1138.62,669.718C1099.64,668.338 1071.96,592.639 1000.82,592.74C972.89,592.779 964.576,608.595 944.052,608.413C923.528,608.231 923.823,597.405 894.996,599.202C862.763,601.212 840.37,663.436 822.596,669.112C804.823,674.787 791.906,647.609 787.388,628.719C782.95,610.166 779.769,592.773 775.78,570.588ZM901.524,703.178C915.956,705.198 920.71,692.8 960.703,692.769C1000.7,692.738 1022.33,705.834 1044.1,704.362C1061.95,703.155 1080.28,675.576 1073.74,666.404C1067.22,657.258 1039.79,674.24 1008.41,675.029C989.647,675.501 972.668,670.436 961.16,666.157C950.459,669.798 945.221,675.01 926.943,674.927C908.665,674.844 894.883,660.074 886.869,666.63C878.856,673.186 884.689,700.821 901.524,703.178Z" style="fill:rgb(83,86,90);"/>
                        </g>
                        <g transform="matrix(1.33972,0,0,1.33972,-339.459,-23.6349)">
                            <path d="M915.748,416.484C921.147,421.14 929.33,416.67 942.389,415.513C955.448,414.357 973.568,416.344 977.578,414.83C981.588,413.315 1002,379.037 1063.47,374.763C1124.94,370.488 1165.77,386.421 1174.54,387.737C1183.32,389.052 1249.56,390.455 1253.17,393.161C1256.77,395.868 1255.7,412.254 1248.05,407.54C1236.89,400.661 1196.54,410.06 1179.28,416.026C1162.02,421.991 1159.31,434.839 1159.24,443.73C1159.1,463.138 1152.19,521.882 1078,530.698C1007.21,539.11 977.434,469.713 975.097,456.19C972.451,440.878 978.834,433.774 948.633,434.601C923.515,435.289 925.339,438.543 924.137,460.019C922.936,481.495 909.103,535.172 854.926,543.767C800.748,552.363 771.344,515.976 761.804,499.558C752.263,483.139 750.524,449.852 728.749,447.792C723.46,442.265 725.233,424.541 726.703,421.847C728.172,419.153 788.233,397.134 832.433,395.99C876.633,394.845 910.349,411.829 915.748,416.484ZM888.822,418.906C907.002,427.632 911.872,438.334 912.752,456.883C913.632,475.432 895.517,540.475 830.877,532.831C766.236,525.188 759.2,455.237 766.843,435.897C774.487,416.557 807.697,408.576 827.82,407.577C847.943,406.578 870.643,410.179 888.822,418.906ZM1041.17,390.683C1063.1,385.793 1102.79,382.971 1128.44,397.408C1153.12,411.301 1148.47,453.092 1140.61,474.717C1132.76,496.343 1109.55,517.25 1069.83,517.968C1030.1,518.687 999.677,487.647 990.859,451.874C982.041,416.101 1019.24,395.573 1041.17,390.683Z" style="fill:rgb(83,86,90);"/>
                        </g>
                    </g>
                </g>
            </g>
        </g>
    </g>
</svg>
