<?xml version="1.0" encoding="UTF-8" standalone="no"?><!DOCTYPE svg PUBLIC "-//W3C//DTD SVG 1.1//EN" "http://www.w3.org/Graphics/SVG/1.1/DTD/svg11.dtd"><svg width="100%" height="100%" viewBox="0 0 165 165" version="1.1" xmlns="http://www.w3.org/2000/svg" xmlns:xlink="http://www.w3.org/1999/xlink" xml:space="preserve" xmlns:serif="http://www.serif.com/" style="fill-rule:evenodd;clip-rule:evenodd;stroke-linecap:round;stroke-linejoin:round;stroke-miterlimit:1.5;"><path d="M39.97,53.801l84.985,0" style="fill:none;stroke:#000;stroke-width:7.8px;"/><path d="M39.97,82.462l84.985,0" style="fill:none;stroke:#000;stroke-width:7.8px;"/><path d="M39.97,111.124l84.985,0" style="fill:none;stroke:#000;stroke-width:7.8px;"/><path d="M112.59,45.836c0,-3.136 -2.542,-5.677 -5.678,-5.677c0,0 -0.001,0 -0.001,0c-3.136,0 -5.678,2.541 -5.678,5.677c0,4.671 0,11.259 0,15.93c0,3.136 2.542,5.678 5.678,5.678c0,0 0.001,0 0.001,0c3.136,0 5.678,-2.542 5.678,-5.678c0,-4.671 0,-11.259 0,-15.93Z"/><path d="M63.692,74.497c0,-3.135 -2.542,-5.677 -5.678,-5.677c0,0 -0.001,0 -0.001,0c-3.136,0 -5.678,2.542 -5.678,5.677c0,4.671 0,11.26 0,15.931c0,3.135 2.542,5.677 5.678,5.677c0,0 0.001,0 0.001,0c3.136,0 5.678,-2.542 5.678,-5.677c0,-4.671 0,-11.26 0,-15.931Z"/><path d="M92.641,103.159c0,-3.136 -2.542,-5.678 -5.678,-5.678c0,0 -0.001,0 -0.001,0c-3.136,0 -5.678,2.542 -5.678,5.678c0,4.671 0,11.259 0,15.93c0,3.136 2.542,5.677 5.678,5.677c0,0 0.001,0 0.001,0c3.136,0 5.678,-2.541 5.678,-5.677c0,-4.671 0,-11.259 0,-15.93Z"/></svg>